<?xml version="1.0" standalone="no"?><!DOCTYPE svg PUBLIC "-//W3C//DTD SVG 1.1//EN" "http://www.w3.org/Graphics/SVG/1.1/DTD/svg11.dtd"><svg t="1706627446226" class="icon" viewBox="0 0 2205 1024" version="1.1" xmlns="http://www.w3.org/2000/svg" p-id="5081" xmlns:xlink="http://www.w3.org/1999/xlink" width="430.6640625" height="200"><path d="M1688.97643 1024a510.947448 510.947448 0 0 1-361.379195-149.568253L740.472167 280.803712a325.148376 325.148376 0 1 0 0 460.317201l107.763462-108.22796a92.899536 92.899536 0 0 1 131.917341 130.523848l-107.763462 108.692458a510.947448 510.947448 0 1 1 0-722.293893L1459.050079 745.301392a325.148376 325.148376 0 1 0 0-460.317201L1351.751114 391.35416a92.899536 92.899536 0 0 1-131.452843 0 92.899536 92.899536 0 0 1 0-130.988346l107.298964-108.692457A510.947448 510.947448 0 1 1 1688.97643 1024z" fill="#2F3CF4" p-id="5082"></path></svg>